<svg width="40" height="40" viewBox="0 0 40 40" fill="none" xmlns="http://www.w3.org/2000/svg">
<path d="M40 20C40 31.0457 31.0457 40 20 40C8.95431 40 0 31.0457 0 20C0 8.95431 8.95431 0 20 0C31.0457 0 40 8.95431 40 20Z" fill="#0098EA"/>
<path d="M27.4185 35.625C25.9363 35.2003 24.5012 34.7948 23.0722 34.3657C22.9692 34.3352 22.8671 34.1381 22.8513 34.0073C22.7038 32.8264 22.5764 31.6439 22.4402 30.4613C22.2455 28.7616 22.0465 27.061 21.8536 25.3613C21.7785 24.6994 21.713 24.0366 21.6397 23.3372C19.5997 22.7677 17.5579 22.1974 15.4742 21.6148C14.5603 25.0133 13.6559 28.3753 12.7385 31.7834C11.2553 31.377 9.79493 30.9767 8.28389 30.5625C9.18388 27.184 10.0751 23.8395 10.9743 20.4645C9.80628 20.1061 8.66274 19.7555 7.5 19.3988C7.82648 18.2154 8.13986 17.0782 8.46197 15.9122C9.62908 16.2261 10.7586 16.5296 11.9371 16.8462C12.178 16.0151 12.4277 15.2031 12.6485 14.3843C13.0483 12.9026 13.4246 11.4148 13.8244 9.93308C13.9003 9.65052 13.8584 9.50226 13.5546 9.42465C12.7114 9.20837 11.8743 8.97203 11.0345 8.74267C10.8267 8.68598 10.619 8.62842 10.3414 8.55168C10.6452 7.39615 10.9446 6.25807 11.2553 5.07812C12.645 5.44789 13.9998 5.8072 15.3537 6.16824C19.0148 7.14499 22.6872 8.079 26.3308 9.11593C28.9575 9.86331 31.0909 11.2935 32.0817 13.9944C33.1214 16.8279 32.1655 20.2482 29.8522 22.1084C28.9226 22.8558 27.6289 23.3869 26.1274 23.6267C26.5561 27.6104 27.4194 35.625 27.4194 35.625H27.4185ZM18.3374 10.6735C18.2816 10.8741 18.2335 11.038 18.1916 11.2028C17.6356 13.3587 17.083 15.5154 16.52 17.6694C16.4493 17.9415 16.4798 18.1037 16.7862 18.1779C18.8446 18.6723 20.8969 19.1912 22.9578 19.6735C25.7407 20.325 28.2757 18.5189 27.6175 15.122C27.3225 13.5985 26.1597 12.8529 24.7997 12.4473C22.6785 11.8142 20.5311 11.27 18.3383 10.6726L18.3374 10.6735Z" fill="white"/>
</svg>
